<?xml version="1.0" encoding="UTF-8" standalone="no"?><!-- Generator: Gravit.io --><svg xmlns="http://www.w3.org/2000/svg" xmlns:xlink="http://www.w3.org/1999/xlink" style="isolation:isolate" viewBox="0 0 259 194" width="259pt" height="194pt"><defs><clipPath id="_clipPath_sPlZX0BSyS6ylxUO6lHSdJU0HFaViqCz"><rect width="259" height="194"/></clipPath></defs><g clip-path="url(#_clipPath_sPlZX0BSyS6ylxUO6lHSdJU0HFaViqCz)"><defs><filter id="cI6APYFc9WnrH0wYCp6MTSudHe2Lj1zD" x="-200%" y="-200%" width="400%" height="400%" filterUnits="objectBoundingBox" color-interpolation-filters="sRGB"><feGaussianBlur xmlns="http://www.w3.org/2000/svg" in="SourceGraphic" stdDeviation="2.146804531419514"/><feOffset xmlns="http://www.w3.org/2000/svg" dx="0" dy="0" result="pf_100_offsetBlur"/><feFlood xmlns="http://www.w3.org/2000/svg" flood-color="#000000" flood-opacity="0.65"/><feComposite xmlns="http://www.w3.org/2000/svg" in2="pf_100_offsetBlur" operator="in" result="pf_100_dropShadow"/><feBlend xmlns="http://www.w3.org/2000/svg" in="SourceGraphic" in2="pf_100_dropShadow" mode="normal"/></filter></defs><defs><filter id="QHv6NOFr8lslbJyzBGqQhB7FwxbPNlAZ" x="-200%" y="-200%" width="400%" height="400%" filterUnits="objectBoundingBox" color-interpolation-filters="sRGB"><feGaussianBlur xmlns="http://www.w3.org/2000/svg" in="SourceGraphic" stdDeviation="2.146804531419514"/><feOffset xmlns="http://www.w3.org/2000/svg" dx="0" dy="0" result="pf_100_offsetBlur"/><feFlood xmlns="http://www.w3.org/2000/svg" flood-color="#000000" flood-opacity="0.65"/><feComposite xmlns="http://www.w3.org/2000/svg" in2="pf_100_offsetBlur" operator="in" result="pf_100_dropShadow"/><feBlend xmlns="http://www.w3.org/2000/svg" in="SourceGraphic" in2="pf_100_dropShadow" mode="normal"/></filter><mask id="_mask_eKuAnzI8OtK5qzlWYPkCxEcRyqzCosT1"><path d="M 106.665 86.786 L 152.335 86.786 C 155.887 86.786 158.77 89.669 158.77 93.221 L 158.77 100.779 C 158.77 104.331 155.887 107.214 152.335 107.214 L 106.665 107.214 C 103.113 107.214 100.23 104.331 100.23 100.779 L 100.23 93.221 C 100.23 89.669 103.113 86.786 106.665 86.786 Z" style="stroke:black;fill:white;stroke-miterlimit:10;"/></mask><mask id="_mask_WvXp99wifUyZ1ihZKS6Sd2X3cwLWrW9E"><path d="M 106.665 86.786 L 152.335 86.786 C 155.887 86.786 158.77 89.669 158.77 93.221 L 158.77 100.779 C 158.77 104.331 155.887 107.214 152.335 107.214 L 106.665 107.214 C 103.113 107.214 100.23 104.331 100.23 100.779 L 100.23 93.221 C 100.23 89.669 103.113 86.786 106.665 86.786 Z" style="stroke:black;fill:white;stroke-miterlimit:10;"/></mask></defs><g filter="url(#QHv6NOFr8lslbJyzBGqQhB7FwxbPNlAZ)"><g mask="url(#_mask_WvXp99wifUyZ1ihZKS6Sd2X3cwLWrW9E)"><g mask="url(#_mask_eKuAnzI8OtK5qzlWYPkCxEcRyqzCosT1)"/></g></g><g filter="url(#QHv6NOFr8lslbJyzBGqQhB7FwxbPNlAZ)"><g mask="url(#_mask_eKuAnzI8OtK5qzlWYPkCxEcRyqzCosT1)" style="mix-blend-mode:luminosity"><use xlink:href="#img_yE7QvF5lZNqgXVnJLu1hWCNH0fxT9DT7" transform="matrix(0.305,0,0,0.305,91.998,76.115)" preserveAspectRatio="none" style="mix-blend-mode:luminosity;"/></g></g><g><g><path d=" M 182.259 87.125 C 182.683 84.056 183.585 81.15 184.291 78.241 C 184.368 77.857 184.89 77.868 185.118 78.103 C 186.417 79.514 187.847 80.928 188.798 82.639 L 188.864 82.641 C 196.917 83.494 203.512 75.623 208.185 69.869 C 213.59 63.283 218.207 55.219 219.144 45.466 C 219.105 44.234 219.055 42.925 218.875 41.613 C 218.79 40.996 219.507 41.011 219.657 41.629 C 219.689 41.861 219.721 42.092 219.753 42.323 C 220.014 42.329 220.241 42.564 220.294 42.95 C 220.346 43.797 220.266 44.642 220.253 45.488 C 222.604 66.386 207.758 86.172 190.718 87.14 C 191.474 88.386 192.176 89.708 192.998 90.956 C 193.399 91.502 192.951 92.032 192.484 91.946 C 189.148 91.341 185.958 89.43 182.767 87.982 C 182.496 87.899 182.192 87.586 182.259 87.125 Z  M 191.424 90.386 C 190.895 89.375 190.496 88.367 189.902 87.355 C 189.718 86.966 189.871 86.662 190.057 86.588 C 190.025 86.357 190.134 86.205 190.319 86.132 C 205.485 83.357 216.412 71.033 218.765 54.076 C 216.622 60.727 212.731 66.497 208.778 71.342 C 205.884 74.901 202.742 78.07 199.199 80.692 C 196.42 82.714 192.836 84.566 189.133 83.185 L 189.133 83.185 C 189.414 83.806 188.674 84.099 188.349 83.631 C 187.321 82.302 186.303 81.051 185.231 79.875 C 184.647 82.249 183.997 84.621 183.618 87.075 C 186.18 88.204 188.785 89.641 191.424 90.386 Z " fill="rgb(0,0,0)"/></g></g></g><defs><image width="259" height="194" xlink:href="cloud://id=RU-YksY6H" id="img_yE7QvF5lZNqgXVnJLu1hWCNH0fxT9DT7"/></defs></svg>